<svg width="1920" height="209" viewBox="0 0 1920 209" fill="none" xmlns="http://www.w3.org/2000/svg">
<path fill-rule="evenodd" clip-rule="evenodd" d="M1994.53 0.369995H1966.06V169H1994.53V137.297C1995.31 138.621 1996.11 139.917 1996.94 141.187C2003.37 150.969 2011.25 158.561 2020.59 163.963C2030.08 169.365 2040.6 172.066 2052.13 172.066C2064.25 172.066 2074.98 169.365 2084.32 163.963C2093.67 158.415 2100.97 150.75 2106.22 140.968C2111.48 131.186 2114.11 119.871 2114.11 107.023C2114.11 94.029 2111.48 82.714 2106.22 73.078C2100.97 63.296 2093.67 55.704 2084.32 50.302C2074.98 44.754 2064.25 41.98 2052.13 41.98C2040.6 41.98 2030.08 44.681 2020.59 50.083C2011.25 55.485 2003.37 63.077 1996.94 72.859C1996.11 74.1096 1995.31 75.3896 1994.53 76.6993V0.369995ZM2079.94 85.123C2083.45 91.401 2085.2 98.701 2085.2 107.023C2085.2 115.345 2083.45 122.718 2079.94 129.142C2076.59 135.42 2071.91 140.384 2065.93 144.034C2059.94 147.538 2053.08 149.29 2045.34 149.29C2037.6 149.29 2030.3 147.538 2023.44 144.034C2016.73 140.384 2010.81 135.42 2005.7 129.142C2000.59 122.718 1996.43 115.345 1993.22 107.023C1996.43 98.701 2000.59 91.401 2005.7 85.123C2010.81 78.699 2016.73 73.735 2023.44 70.231C2030.3 66.581 2037.6 64.756 2045.34 64.756C2053.08 64.756 2059.94 66.581 2065.93 70.231C2071.91 73.735 2076.59 78.699 2079.94 85.123Z" fill="white"/>
<path d="M1421.44 66.946V54.025L1447.94 47.236L1459.77 12.634H1476.41V45.046H1534.01V66.946H1476.41V120.601C1476.41 130.967 1478.6 138.267 1482.98 142.501C1487.51 146.589 1494.81 148.633 1504.88 148.633C1511.31 148.633 1517 147.976 1521.96 146.662C1526.93 145.202 1531.67 143.158 1536.2 140.53V163.963C1532.4 165.861 1527 167.686 1519.99 169.438C1513.13 171.19 1506.05 172.066 1498.75 172.066C1486.63 172.066 1476.85 170.095 1469.4 166.153C1461.96 162.065 1456.48 156.517 1452.98 149.509C1449.62 142.355 1447.94 134.179 1447.94 124.981V66.946H1421.44Z" fill="white"/>
<path d="M1413.44 131.332C1413.44 139.654 1411.11 146.881 1406.44 153.013C1401.76 159.145 1394.68 163.89 1385.19 167.248C1375.7 170.46 1363.8 172.066 1349.5 172.066C1334.75 172.066 1321.98 170.241 1311.17 166.591C1300.37 162.795 1291.97 157.539 1285.99 150.823C1280.15 143.961 1277.01 136.077 1276.57 127.171H1305.48C1306.35 131.843 1308.69 136.004 1312.49 139.654C1316.43 143.158 1321.54 145.859 1327.82 147.757C1334.24 149.655 1341.54 150.604 1349.72 150.604C1361.54 150.604 1370.45 149.217 1376.43 146.443C1382.42 143.523 1385.41 139.143 1385.41 133.303C1385.41 129.361 1383.37 126.368 1379.28 124.324C1375.34 122.28 1367.82 120.747 1356.72 119.725L1332.41 117.535C1319.27 116.367 1308.91 114.031 1301.32 110.527C1293.72 106.877 1288.32 102.497 1285.11 97.387C1281.9 92.131 1280.29 86.583 1280.29 80.743C1280.29 72.275 1282.92 65.194 1288.18 59.5C1293.43 53.806 1300.73 49.499 1310.08 46.579C1319.42 43.513 1330.3 41.98 1342.71 41.98C1355.56 41.98 1367.02 43.805 1377.09 47.455C1387.16 50.959 1395.19 55.923 1401.18 62.347C1407.17 68.625 1410.52 75.925 1411.25 84.247H1382.35C1381.76 80.889 1380.01 77.677 1377.09 74.611C1374.32 71.399 1370.01 68.771 1364.17 66.727C1358.48 64.537 1350.81 63.442 1341.17 63.442C1330.95 63.442 1322.92 64.756 1317.08 67.384C1311.39 70.012 1308.54 73.881 1308.54 78.991C1308.54 82.203 1310.3 84.977 1313.8 87.313C1317.3 89.503 1323.8 91.036 1333.29 91.912L1364.61 94.759C1377.16 95.927 1386.95 98.19 1393.95 101.548C1401.11 104.76 1406.14 108.921 1409.06 114.031C1411.98 119.141 1413.44 124.908 1413.44 131.332Z" fill="white"/>
<path fill-rule="evenodd" clip-rule="evenodd" d="M1665.5 138.292L1668.72 169H1698.06L1691.49 107.023L1698.06 45.046H1668.72L1665.52 75.6895C1664.93 74.7297 1664.31 73.7863 1663.68 72.859C1657.26 63.077 1649.3 55.485 1639.81 50.083C1630.47 44.681 1620.03 41.98 1608.49 41.98C1596.38 41.98 1585.64 44.754 1576.3 50.302C1566.96 55.704 1559.66 63.296 1554.4 73.078C1549.14 82.714 1546.52 94.029 1546.52 107.023C1546.52 119.871 1549.14 131.186 1554.4 140.968C1559.66 150.75 1566.96 158.415 1576.3 163.963C1585.64 169.365 1596.38 172.066 1608.49 172.066C1620.03 172.066 1630.47 169.365 1639.81 163.963C1649.3 158.561 1657.26 150.969 1663.68 141.187C1664.31 140.237 1664.91 139.272 1665.5 138.292ZM1580.46 129.142C1577.1 122.718 1575.42 115.345 1575.42 107.023C1575.42 98.701 1577.1 91.401 1580.46 85.123C1583.97 78.699 1588.71 73.735 1594.7 70.231C1600.68 66.581 1607.54 64.756 1615.28 64.756C1623.17 64.756 1630.47 66.581 1637.18 70.231C1643.9 73.735 1649.81 78.699 1654.92 85.123C1660.18 91.401 1664.34 98.701 1667.4 107.023C1664.34 115.345 1660.18 122.718 1654.92 129.142C1649.81 135.42 1643.9 140.384 1637.18 144.034C1630.47 147.538 1623.17 149.29 1615.28 149.29C1607.54 149.29 1600.68 147.538 1594.7 144.034C1588.71 140.384 1583.97 135.42 1580.46 129.142Z" fill="white"/>
<path d="M1845.48 45.046L1882.32 141.304L1919.94 45.046H1948.41L1898.47 169H1869.35L1831.06 71.9489L1791.82 169H1762.69L1712.98 45.046H1741.89L1779.45 140.667L1817.01 45.046H1845.48Z" fill="white"/>
<path fill-rule="evenodd" clip-rule="evenodd" d="M2205.47 172.066C2191.02 172.066 2178.17 169.365 2166.93 163.963C2155.68 158.415 2146.85 150.75 2140.43 140.968C2134 131.186 2130.79 119.798 2130.79 106.804C2130.79 93.956 2133.78 82.714 2139.77 73.078C2145.9 63.296 2154.3 55.704 2164.96 50.302C2175.76 44.754 2188.1 41.98 2201.97 41.98C2215.84 41.98 2227.81 45.119 2237.88 51.397C2248.1 57.529 2255.99 66.216 2261.53 77.458C2267.08 88.7 2269.86 101.913 2269.86 117.097H2161.03C2162.05 121.393 2163.65 125.335 2165.83 128.923C2170.07 135.639 2175.98 140.822 2183.57 144.472C2191.31 147.976 2200.43 149.728 2210.95 149.728C2220.44 149.728 2230.14 148.268 2240.07 145.348C2250 142.282 2258.76 138.048 2266.35 132.646V153.232C2258.76 159.072 2249.49 163.671 2238.54 167.029C2227.74 170.387 2216.71 172.066 2205.47 172.066ZM2164.96 83.59C2162.89 87.1247 2161.43 91.0667 2160.58 95.416H2240.37C2239.39 90.6119 2237.76 86.3049 2235.47 82.495C2232.12 76.655 2227.52 72.202 2221.68 69.136C2215.98 65.924 2209.19 64.318 2201.31 64.318C2192.99 64.318 2185.69 65.997 2179.41 69.355C2173.28 72.713 2168.46 77.458 2164.96 83.59Z" fill="white"/>
<path d="M2315.84 45.046H2287.37L2294.81 84.685V169H2323.28V112.936C2323.28 102.862 2325.04 94.394 2328.54 87.532C2332.19 80.524 2337.15 75.268 2343.43 71.764C2349.71 68.26 2356.86 66.508 2364.89 66.508C2368.25 66.508 2371.83 66.727 2375.62 67.165C2379.42 67.603 2382.92 68.26 2386.14 69.136V44.17C2383.8 43.44 2381.1 42.929 2378.03 42.637C2374.97 42.199 2371.97 41.98 2369.05 41.98C2360.73 41.98 2353.43 43.586 2347.15 46.798C2340.88 50.01 2335.55 54.463 2331.17 60.157C2327.14 65.5692 2323.91 71.9046 2321.47 79.1634L2315.84 45.046Z" fill="white"/>
<path d="M2398.15 45.046H2426.62L2432.25 79.1634C2434.69 71.9046 2437.93 65.5692 2441.95 60.157C2446.33 54.463 2451.66 50.01 2457.94 46.798C2464.22 43.586 2471.52 41.98 2479.84 41.98C2482.76 41.98 2485.75 42.199 2488.82 42.637C2491.88 42.929 2494.58 43.44 2496.92 44.17V69.136C2493.71 68.26 2490.2 67.603 2486.41 67.165C2482.61 66.727 2479.04 66.508 2475.68 66.508C2467.65 66.508 2460.49 68.26 2454.21 71.764C2447.94 75.268 2442.97 80.524 2439.32 87.532C2435.82 94.394 2434.07 102.862 2434.07 112.936V169H2405.6V84.685L2398.15 45.046Z" fill="white"/>
<path d="M2524.7 205.354C2530.69 207.252 2537.33 208.201 2544.63 208.201C2551.06 208.201 2557.04 207.179 2562.59 205.135C2568.28 203.091 2573.47 199.806 2578.14 195.28C2582.96 190.9 2587.12 185.06 2590.62 177.76L2654.79 45.046H2624.57L2578.66 146.219L2533.24 45.046H2501.93L2558.87 165.058H2570.11L2568.72 168.124C2565.66 174.84 2561.79 179.512 2557.11 182.14C2552.44 184.914 2547.11 186.301 2541.13 186.301C2534.85 186.301 2529.16 185.498 2524.05 183.892C2519.08 182.286 2513.83 179.731 2508.28 176.227V197.908C2513.39 201.12 2518.86 203.602 2524.7 205.354Z" fill="white"/>
<path fill-rule="evenodd" clip-rule="evenodd" d="M543.534 0.369995H515.064V169H543.534V137.297C544.306 138.621 545.109 139.917 545.943 141.187C552.367 150.969 560.251 158.561 569.595 163.963C579.085 169.365 589.597 172.066 601.131 172.066C613.249 172.066 623.98 169.365 633.324 163.963C642.668 158.415 649.968 150.75 655.224 140.968C660.48 131.186 663.108 119.871 663.108 107.023C663.108 94.029 660.48 82.714 655.224 73.078C649.968 63.296 642.668 55.704 633.324 50.302C623.98 44.754 613.249 41.98 601.131 41.98C589.597 41.98 579.085 44.681 569.595 50.083C560.251 55.485 552.367 63.077 545.943 72.859C545.109 74.1096 544.306 75.3897 543.534 76.6994V0.369995ZM628.944 85.123C632.448 91.401 634.2 98.701 634.2 107.023C634.2 115.345 632.448 122.718 628.944 129.142C625.586 135.42 620.914 140.384 614.928 144.034C608.942 147.538 602.08 149.29 594.342 149.29C586.604 149.29 579.304 147.538 572.442 144.034C565.726 140.384 559.813 135.42 554.703 129.142C549.593 122.718 545.432 115.345 542.22 107.023C545.432 98.701 549.593 91.401 554.703 85.123C559.813 78.699 565.726 73.735 572.442 70.231C579.304 66.581 586.604 64.756 594.342 64.756C602.08 64.756 608.942 66.581 614.928 70.231C620.914 73.735 625.586 78.699 628.944 85.123Z" fill="white"/>
<path d="M-29.5565 66.946V54.025L-3.05756 47.236L8.76845 12.634H25.4124V45.046H83.0095V66.946H25.4124V120.601C25.4124 130.967 27.6024 138.267 31.9825 142.501C36.5085 146.589 43.8084 148.633 53.8824 148.633C60.3064 148.633 66.0004 147.976 70.9644 146.662C75.9285 145.202 80.6735 143.158 85.1995 140.53V163.963C81.4035 165.861 76.0014 167.686 68.9935 169.438C62.1315 171.19 55.0505 172.066 47.7505 172.066C35.6325 172.066 25.8504 170.095 18.4044 166.153C10.9585 162.065 5.48344 156.517 1.97945 149.509C-1.37856 142.355 -3.05756 134.179 -3.05756 124.981V66.946H-29.5565Z" fill="white"/>
<path d="M-37.5552 131.332C-37.5552 139.654 -39.8912 146.881 -44.5632 153.013C-49.2352 159.145 -56.3162 163.89 -65.8062 167.248C-75.2962 170.46 -87.1952 172.066 -101.503 172.066C-116.249 172.066 -129.024 170.241 -139.828 166.591C-150.632 162.795 -159.027 157.539 -165.013 150.823C-170.853 143.961 -173.992 136.077 -174.43 127.171H-145.522C-144.646 131.843 -142.31 136.004 -138.514 139.654C-134.572 143.158 -129.462 145.859 -123.184 147.757C-116.76 149.655 -109.46 150.604 -101.284 150.604C-89.4582 150.604 -80.5522 149.217 -74.5662 146.443C-68.5802 143.523 -65.5872 139.143 -65.5872 133.303C-65.5872 129.361 -67.6312 126.368 -71.7192 124.324C-75.6612 122.28 -83.1802 120.747 -94.2762 119.725L-118.585 117.535C-131.725 116.367 -142.091 114.031 -149.683 110.527C-157.275 106.877 -162.677 102.497 -165.889 97.387C-169.101 92.131 -170.707 86.583 -170.707 80.743C-170.707 72.275 -168.079 65.194 -162.823 59.5C-157.567 53.806 -150.267 49.499 -140.923 46.579C-131.579 43.513 -120.702 41.98 -108.292 41.98C-95.4442 41.98 -83.9832 43.805 -73.9092 47.455C-63.8352 50.959 -55.8052 55.923 -49.8192 62.347C-43.8332 68.625 -40.4752 75.925 -39.7452 84.247H-68.6532C-69.2372 80.889 -70.9892 77.677 -73.9092 74.611C-76.6832 71.399 -80.9902 68.771 -86.8302 66.727C-92.5242 64.537 -100.189 63.442 -109.825 63.442C-120.045 63.442 -128.075 64.756 -133.915 67.384C-139.609 70.012 -142.456 73.881 -142.456 78.991C-142.456 82.203 -140.704 84.977 -137.2 87.313C-133.696 89.503 -127.199 91.036 -117.709 91.912L-86.3922 94.759C-73.8362 95.927 -64.0542 98.19 -57.0462 101.548C-49.8922 104.76 -44.8552 108.921 -41.9352 114.031C-39.0152 119.141 -37.5552 124.908 -37.5552 131.332Z" fill="white"/>
<path fill-rule="evenodd" clip-rule="evenodd" d="M214.501 138.292L217.718 169H247.064L240.494 107.023L247.064 45.046H217.718L214.523 75.6895C213.928 74.7298 213.314 73.7863 212.681 72.859C206.257 63.077 198.3 55.485 188.81 50.083C179.466 44.681 169.027 41.98 157.493 41.98C145.375 41.98 134.644 44.754 125.3 50.302C115.956 55.704 108.656 63.296 103.4 73.078C98.1444 82.714 95.5164 94.029 95.5164 107.023C95.5164 119.871 98.1444 131.186 103.4 140.968C108.656 150.75 115.956 158.415 125.3 163.963C134.644 169.365 145.375 172.066 157.493 172.066C169.027 172.066 179.466 169.365 188.81 163.963C198.3 158.561 206.257 150.969 212.681 141.187C213.305 140.237 213.912 139.272 214.501 138.292ZM129.461 129.142C126.103 122.718 124.424 115.345 124.424 107.023C124.424 98.701 126.103 91.401 129.461 85.123C132.965 78.699 137.71 73.735 143.696 70.231C149.682 66.581 156.544 64.756 164.282 64.756C172.166 64.756 179.466 66.581 186.182 70.231C192.898 73.735 198.811 78.699 203.921 85.123C209.177 91.401 213.338 98.701 216.404 107.023C213.338 115.345 209.177 122.718 203.921 129.142C198.811 135.42 192.898 140.384 186.182 144.034C179.466 147.538 172.166 149.29 164.282 149.29C156.544 149.29 149.682 147.538 143.696 144.034C137.71 140.384 132.965 135.42 129.461 129.142Z" fill="white"/>
<path d="M394.475 45.046L431.32 141.304L468.935 45.046H497.405L447.473 169H418.346L380.062 71.9489L340.82 169H311.693L261.98 45.046H290.888L328.447 140.667L366.005 45.046H394.475Z" fill="white"/>
<path fill-rule="evenodd" clip-rule="evenodd" d="M754.47 172.066C740.016 172.066 727.168 169.365 715.926 163.963C704.684 158.415 695.851 150.75 689.427 140.968C683.003 131.186 679.791 119.798 679.791 106.804C679.791 93.956 682.784 82.714 688.77 73.078C694.902 63.296 703.297 55.704 713.955 50.302C724.759 44.754 737.096 41.98 750.966 41.98C764.836 41.98 776.808 45.119 786.882 51.397C797.102 57.529 804.986 66.216 810.534 77.458C816.082 88.7 818.856 101.913 818.856 117.097H710.03C711.047 121.393 712.647 125.335 714.831 128.923C719.065 135.639 724.978 140.822 732.57 144.472C740.308 147.976 749.433 149.728 759.945 149.728C769.435 149.728 779.144 148.268 789.072 145.348C799 142.282 807.76 138.048 815.352 132.646V153.232C807.76 159.072 798.489 163.671 787.539 167.029C776.735 170.387 765.712 172.066 754.47 172.066ZM713.955 83.59C711.886 87.1247 710.428 91.0667 709.581 95.416H789.374C788.393 90.6119 786.759 86.3049 784.473 82.495C781.115 76.655 776.516 72.202 770.676 69.136C764.982 65.924 758.193 64.318 750.309 64.318C741.987 64.318 734.687 65.997 728.409 69.355C722.277 72.713 717.459 77.458 713.955 83.59Z" fill="white"/>
<path d="M864.838 45.046H836.368L843.814 84.685V169H872.284V112.936C872.284 102.862 874.036 94.394 877.54 87.532C881.19 80.524 886.154 75.268 892.432 71.764C898.71 68.26 905.864 66.508 913.894 66.508C917.252 66.508 920.829 66.727 924.625 67.165C928.421 67.603 931.925 68.26 935.137 69.136V44.17C932.801 43.44 930.1 42.929 927.034 42.637C923.968 42.199 920.975 41.98 918.055 41.98C909.733 41.98 902.433 43.586 896.155 46.798C889.877 50.01 884.548 54.463 880.168 60.157C876.143 65.5691 872.911 71.9045 870.469 79.1633L864.838 45.046Z" fill="white"/>
<path d="M947.151 45.046H975.621L981.252 79.1633C983.694 71.9045 986.927 65.5691 990.951 60.157C995.331 54.463 1000.66 50.01 1006.94 46.798C1013.22 43.586 1020.52 41.98 1028.84 41.98C1031.76 41.98 1034.75 42.199 1037.82 42.637C1040.88 42.929 1043.58 43.44 1045.92 44.17V69.136C1042.71 68.26 1039.2 67.603 1035.41 67.165C1031.61 66.727 1028.04 66.508 1024.68 66.508C1016.65 66.508 1009.49 68.26 1003.21 71.764C996.937 75.268 991.973 80.524 988.323 87.532C984.819 94.394 983.067 102.862 983.067 112.936V169H954.597V84.685L947.151 45.046Z" fill="white"/>
<path d="M1073.7 205.354C1079.69 207.252 1086.33 208.201 1093.63 208.201C1100.06 208.201 1106.04 207.179 1111.59 205.135C1117.28 203.091 1122.47 199.806 1127.14 195.28C1131.96 190.9 1136.12 185.06 1139.62 177.76L1203.79 45.046H1173.57L1127.66 146.219L1082.24 45.046H1050.93L1107.87 165.058H1119.11L1117.72 168.124C1114.66 174.84 1110.79 179.512 1106.11 182.14C1101.44 184.914 1096.11 186.301 1090.13 186.301C1083.85 186.301 1078.16 185.498 1073.05 183.892C1068.08 182.286 1062.83 179.731 1057.28 176.227V197.908C1062.39 201.12 1067.86 203.602 1073.7 205.354Z" fill="white"/>
</svg>
