<svg width="1920" height="89" viewBox="0 0 1920 89" fill="none" xmlns="http://www.w3.org/2000/svg">
<path d="M269.294 36.163C267.834 46.383 263.819 55.435 257.249 63.319C250.679 71.057 242.284 77.116 232.064 81.496C221.844 85.876 210.456 88.066 197.9 88.066C183.592 88.066 170.963 85.365 160.013 79.963C149.209 74.415 140.741 66.75 134.609 56.968C128.477 47.186 125.411 35.871 125.411 23.023C125.411 10.175 128.477 -1.14001 134.609 -10.922C140.741 -20.704 149.209 -28.296 160.013 -33.698C170.963 -39.246 183.592 -42.02 197.9 -42.02C210.456 -42.02 221.844 -39.83 232.064 -35.45C242.284 -31.07 250.679 -24.938 257.249 -17.054C263.819 -9.31601 267.834 -0.264004 269.294 10.102H240.605C238.561 0.757996 233.67 -6.54201 225.932 -11.798C218.194 -17.054 208.85 -19.682 197.9 -19.682C189.14 -19.682 181.475 -17.93 174.905 -14.426C168.335 -11.068 163.225 -6.17701 159.575 0.246986C156.071 6.52499 154.319 14.117 154.319 23.023C154.319 31.783 156.071 39.375 159.575 45.799C163.225 52.223 168.335 57.187 174.905 60.691C181.475 64.049 189.14 65.728 197.9 65.728C208.996 65.728 218.413 63.027 226.151 57.625C233.889 52.223 238.707 45.069 240.605 36.163H269.294Z" fill="white"/>
<path d="M-38.8889 85V-38.954H-10.8569V57.9357L65.3551 -38.954H102.147V85H74.1151V-12.9332L-2.97292 85H-38.8889Z" fill="white"/>
<path d="M324.749 -16.616H273.284V-38.954H404.684V-16.616H353.219V85H324.749V-16.616Z" fill="white"/>
<path fill-rule="evenodd" clip-rule="evenodd" d="M485.837 88.066C470.799 88.066 457.586 85.365 446.198 79.963C434.956 74.415 426.123 66.75 419.699 56.968C413.421 47.186 410.282 35.871 410.282 23.023C410.282 10.029 413.421 -1.28601 419.699 -10.922C426.123 -20.704 434.956 -28.296 446.198 -33.698C457.586 -39.246 470.799 -42.02 485.837 -42.02C500.875 -42.02 514.015 -39.246 525.257 -33.698C536.645 -28.296 545.478 -20.704 551.756 -10.922C558.18 -1.28601 561.392 10.029 561.392 23.023C561.392 35.871 558.18 47.186 551.756 56.968C545.478 66.75 536.645 74.415 525.257 79.963C514.015 85.365 500.875 88.066 485.837 88.066ZM485.837 65.728C495.473 65.728 503.722 63.976 510.584 60.472C517.592 56.968 522.994 52.077 526.79 45.799C530.586 39.375 532.484 31.783 532.484 23.023C532.484 14.263 530.586 6.74399 526.79 0.465996C522.994 -5.958 517.592 -10.922 510.584 -14.426C503.722 -17.93 495.473 -19.682 485.837 -19.682C476.347 -19.682 468.098 -17.93 461.09 -14.426C454.082 -10.922 448.68 -5.958 444.884 0.465996C441.088 6.74399 439.19 14.263 439.19 23.023C439.19 31.783 441.088 39.375 444.884 45.799C448.68 52.077 454.082 56.968 461.09 60.472C468.098 63.976 476.347 65.728 485.837 65.728Z" fill="white"/>
<path d="M589.597 32.878C598.503 42.076 611.424 46.675 628.36 46.675C640.04 46.675 650.552 44.412 659.896 39.886C666.506 36.6315 672.054 32.4915 676.54 27.4658V85H705.01V-38.954H676.54V4.36782C671.212 10.2243 665.445 14.7636 659.239 17.986C651.793 21.928 643.836 23.899 635.368 23.899C614.782 23.899 604.489 12.949 604.489 -8.95101V-38.954H576.238V-7.85601C576.238 9.95599 580.691 23.534 589.597 32.878Z" fill="white"/>
<path d="M735.31 -38.954H763.561V11.197H840.649V-38.954H868.9V85H840.649V33.097H763.561V85H735.31V-38.954Z" fill="white"/>
<path d="M927.165 -38.954H899.133V85H935.049L1012.14 -12.9332V85H1040.17V-38.954H1003.38L927.165 57.9357V-38.954Z" fill="white"/>
<path d="M1070.44 -38.954H1098.91V47.3866L1169.43 -38.954H1201.84L1158.27 12.4251L1205.78 85H1172.49L1140.24 33.6844L1096.72 85H1070.44V-38.954Z" fill="white"/>
<path fill-rule="evenodd" clip-rule="evenodd" d="M1281.4 23.023L1275.04 85H1367.68C1381.26 85 1391.84 82.007 1399.44 76.021C1407.17 69.889 1411.04 61.494 1411.04 50.836C1411.04 40.762 1407.25 32.951 1399.66 27.403C1395.06 24.0451 1389.24 21.6499 1382.18 20.2174C1386.29 18.6745 1389.85 16.6898 1392.87 14.263C1399.73 8.71499 1403.16 1.41499 1403.16 -7.63701C1403.16 -17.419 1399.73 -25.084 1392.87 -30.632C1386.15 -36.18 1376.81 -38.954 1364.83 -38.954H1275.04L1281.4 23.023ZM1304.06 65.29H1360.45C1368.19 65.29 1373.74 63.83 1377.1 60.91C1380.6 57.844 1382.35 53.61 1382.35 48.208C1382.35 43.39 1380.38 39.375 1376.44 36.163C1372.65 32.951 1366.22 31.345 1357.17 31.345H1307.84L1304.06 65.29ZM1307.64 12.949H1353.01C1360.45 12.949 1365.86 11.489 1369.21 8.56899C1372.72 5.50299 1374.47 1.56099 1374.47 -3.25701C1374.47 -7.92901 1372.94 -11.725 1369.87 -14.645C1366.95 -17.711 1361.99 -19.244 1354.98 -19.244H1304.04L1307.64 12.949Z" fill="white"/>
<path d="M1434.01 -38.954H1462.05V57.9358L1538.26 -38.954H1575.05V85H1547.02V-12.9332L1469.93 85H1434.01V-38.954Z" fill="white"/>
<path d="M1644.52 -16.616H1593.06V-38.954H1724.46V-16.616H1672.99V85H1644.52V-16.616Z" fill="white"/>
<path fill-rule="evenodd" clip-rule="evenodd" d="M1852.91 85L1849.69 54.2916C1849.1 55.2719 1848.5 56.237 1847.87 57.187C1841.45 66.969 1833.49 74.561 1824 79.963C1814.66 85.365 1804.22 88.066 1792.69 88.066C1780.57 88.066 1769.84 85.365 1760.49 79.963C1751.15 74.415 1743.85 66.75 1738.59 56.968C1733.34 47.186 1730.71 35.871 1730.71 23.023C1730.71 10.029 1733.34 -1.28601 1738.59 -10.922C1743.85 -20.704 1751.15 -28.296 1760.49 -33.698C1769.84 -39.246 1780.57 -42.02 1792.69 -42.02C1804.22 -42.02 1814.66 -39.319 1824 -33.917C1833.49 -28.515 1841.45 -20.923 1847.87 -11.141C1848.51 -10.2137 1849.12 -9.27023 1849.72 -8.3105L1852.91 -38.954H1882.26L1875.69 23.023L1882.26 85H1852.91ZM1759.62 23.023C1759.62 31.345 1761.3 38.718 1764.65 45.142C1768.16 51.42 1772.9 56.384 1778.89 60.034C1784.87 63.538 1791.74 65.29 1799.47 65.29C1807.36 65.29 1814.66 63.538 1821.37 60.034C1828.09 56.384 1834 51.42 1839.11 45.142C1844.37 38.718 1848.53 31.345 1851.6 23.023C1848.53 14.701 1844.37 7.40099 1839.11 1.12299C1834 -5.30101 1828.09 -10.265 1821.37 -13.769C1814.66 -17.419 1807.36 -19.244 1799.47 -19.244C1791.74 -19.244 1784.87 -17.419 1778.89 -13.769C1772.9 -10.265 1768.16 -5.30101 1764.65 1.12299C1761.3 7.40099 1759.62 14.701 1759.62 23.023Z" fill="white"/>
<path d="M1951.92 -38.954H1909.66V85H1936.37V-13.7657L1984.33 85H2012.15L2060.11 -14.1446V85H2086.83V-38.954H2044.56L1998.44 59.5461L1951.92 -38.954Z" fill="white"/>
<path d="M2117.11 -38.954H2145.14V57.9356L2221.35 -38.954H2258.14V85H2230.11V-12.9332L2153.02 85H2117.11V-38.954Z" fill="white"/>
<path d="M2316.66 -38.954H2288.41V85H2316.66V33.097H2393.75V85H2422V-38.954H2393.75V11.197H2316.66V-38.954Z" fill="white"/>
<path fill-rule="evenodd" clip-rule="evenodd" d="M2520.78 88.066C2505.74 88.066 2492.53 85.365 2481.14 79.963C2469.9 74.415 2461.07 66.75 2454.65 56.968C2448.37 47.186 2445.23 35.871 2445.23 23.023C2445.23 10.029 2448.37 -1.28601 2454.65 -10.922C2461.07 -20.704 2469.9 -28.296 2481.14 -33.698C2492.53 -39.246 2505.74 -42.02 2520.78 -42.02C2535.82 -42.02 2548.96 -39.246 2560.2 -33.698C2571.59 -28.296 2580.42 -20.704 2586.7 -10.922C2593.13 -1.28601 2596.34 10.029 2596.34 23.023C2596.34 35.871 2593.13 47.186 2586.7 56.968C2580.42 66.75 2571.59 74.415 2560.2 79.963C2548.96 85.365 2535.82 88.066 2520.78 88.066ZM2520.78 65.728C2530.42 65.728 2538.67 63.976 2545.53 60.472C2552.54 56.968 2557.94 52.077 2561.74 45.799C2565.53 39.375 2567.43 31.783 2567.43 23.023C2567.43 14.263 2565.53 6.74399 2561.74 0.465996C2557.94 -5.958 2552.54 -10.922 2545.53 -14.426C2538.67 -17.93 2530.42 -19.682 2520.78 -19.682C2511.29 -19.682 2503.04 -17.93 2496.04 -14.426C2489.03 -10.922 2483.63 -5.958 2479.83 0.465996C2476.03 6.74399 2474.14 14.263 2474.14 23.023C2474.14 31.783 2476.03 39.375 2479.83 45.799C2483.63 52.077 2489.03 56.968 2496.04 60.472C2503.04 63.976 2511.29 65.728 2520.78 65.728Z" fill="white"/>
<path fill-rule="evenodd" clip-rule="evenodd" d="M2622.98 23.023L2616.63 85H2709.27C2722.85 85 2733.43 82.007 2741.03 76.021C2748.76 69.889 2752.63 61.494 2752.63 50.836C2752.63 40.762 2748.84 32.951 2741.24 27.403C2736.65 24.0451 2730.82 21.6499 2723.77 20.2174C2727.88 18.6745 2731.44 16.6897 2734.46 14.263C2741.32 8.71499 2744.75 1.41499 2744.75 -7.63701C2744.75 -17.419 2741.32 -25.084 2734.46 -30.632C2727.74 -36.18 2718.4 -38.954 2706.42 -38.954H2616.63L2622.98 23.023ZM2645.64 65.29H2702.04C2709.78 65.29 2715.33 63.83 2718.69 60.91C2722.19 57.844 2723.94 53.61 2723.94 48.208C2723.94 43.39 2721.97 39.375 2718.03 36.163C2714.23 32.951 2707.81 31.345 2698.76 31.345H2649.43L2645.64 65.29ZM2649.23 12.949H2694.6C2702.04 12.949 2707.45 11.489 2710.8 8.56899C2714.31 5.50299 2716.06 1.56099 2716.06 -3.25701C2716.06 -7.92901 2714.53 -11.725 2711.46 -14.645C2708.54 -17.711 2703.58 -19.244 2696.57 -19.244H2645.63L2649.23 12.949Z" fill="white"/>
</svg>
