<svg width="135" height="17" viewBox="0 0 135 17" fill="none" xmlns="http://www.w3.org/2000/svg">
<path d="M1.664 6.404H11.366V8.492H1.664V6.404ZM11.654 0.499999V2.588H1.592L2.888 1.238V14H0.512V0.499999H11.654ZM12.8869 3.812H15.2269L15.8389 7.52V14H13.4989V7.07L12.8869 3.812ZM21.0049 3.74V5.792C20.7409 5.72 20.4529 5.666 20.1409 5.63C19.8289 5.594 19.5349 5.576 19.2589 5.576C18.5989 5.576 18.0109 5.72 17.4949 6.008C16.9789 6.296 16.5709 6.728 16.2709 7.304C15.9829 7.868 15.8389 8.564 15.8389 9.392L15.2989 8.726C15.3469 8.006 15.4669 7.334 15.6589 6.71C15.8629 6.074 16.1389 5.522 16.4869 5.054C16.8469 4.586 17.2849 4.22 17.8009 3.956C18.3169 3.692 18.9169 3.56 19.6009 3.56C19.8409 3.56 20.0869 3.578 20.3389 3.614C20.5909 3.638 20.8129 3.68 21.0049 3.74ZM27.636 14.252C26.448 14.252 25.392 14.03 24.468 13.586C23.544 13.13 22.818 12.5 22.29 11.696C21.762 10.892 21.498 9.956 21.498 8.888C21.498 7.832 21.744 6.908 22.236 6.116C22.74 5.312 23.43 4.688 24.306 4.244C25.194 3.788 26.208 3.56 27.348 3.56C28.488 3.56 29.472 3.818 30.3 4.334C31.14 4.838 31.788 5.552 32.244 6.476C32.7 7.4 32.928 8.486 32.928 9.734H23.334V7.952H31.758L30.588 8.618C30.552 7.946 30.39 7.37 30.102 6.89C29.826 6.41 29.448 6.044 28.968 5.792C28.5 5.528 27.942 5.396 27.294 5.396C26.61 5.396 26.01 5.534 25.494 5.81C24.99 6.086 24.594 6.476 24.306 6.98C24.018 7.472 23.874 8.06 23.874 8.744C23.874 9.5 24.042 10.154 24.378 10.706C24.726 11.258 25.212 11.684 25.836 11.984C26.472 12.272 27.222 12.416 28.086 12.416C28.866 12.416 29.664 12.296 30.48 12.056C31.296 11.804 32.016 11.456 32.64 11.012V12.704C32.016 13.184 31.254 13.562 30.354 13.838C29.466 14.114 28.56 14.252 27.636 14.252ZM45.4013 10.904C45.4013 11.588 45.2093 12.182 44.8253 12.686C44.4413 13.19 43.8593 13.58 43.0793 13.856C42.2993 14.12 41.3213 14.252 40.1453 14.252C38.9333 14.252 37.8833 14.102 36.9953 13.802C36.1073 13.49 35.4173 13.058 34.9253 12.506C34.4453 11.942 34.1873 11.294 34.1513 10.562H36.5273C36.5993 10.946 36.7913 11.288 37.1033 11.588C37.4273 11.876 37.8473 12.098 38.3633 12.254C38.8913 12.41 39.4913 12.488 40.1633 12.488C41.1353 12.488 41.8673 12.374 42.3593 12.146C42.8513 11.906 43.0973 11.546 43.0973 11.066C43.0973 10.742 42.9293 10.496 42.5933 10.328C42.2693 10.16 41.6513 10.034 40.7393 9.95L38.7413 9.77C37.6613 9.674 36.8093 9.482 36.1853 9.194C35.5613 8.894 35.1173 8.534 34.8533 8.114C34.5893 7.682 34.4573 7.226 34.4573 6.746C34.4573 6.05 34.6733 5.468 35.1053 5C35.5373 4.532 36.1373 4.178 36.9053 3.938C37.6733 3.686 38.5673 3.56 39.5873 3.56C40.6433 3.56 41.5853 3.71 42.4133 4.01C43.2413 4.298 43.9013 4.706 44.3933 5.234C44.8853 5.75 45.1613 6.35 45.2213 7.034H42.8453C42.7973 6.758 42.6533 6.494 42.4133 6.242C42.1853 5.978 41.8313 5.762 41.3513 5.594C40.8833 5.414 40.2533 5.324 39.4613 5.324C38.6213 5.324 37.9613 5.432 37.4813 5.648C37.0133 5.864 36.7793 6.182 36.7793 6.602C36.7793 6.866 36.9233 7.094 37.2113 7.286C37.4993 7.466 38.0333 7.592 38.8133 7.664L41.3873 7.898C42.4193 7.994 43.2233 8.18 43.7993 8.456C44.3873 8.72 44.8013 9.062 45.0413 9.482C45.2813 9.902 45.4013 10.376 45.4013 10.904ZM47.2986 0.139999H49.6386V14H47.2986V0.139999ZM53.6886 3.56C54.6486 3.56 55.4646 3.752 56.1366 4.136C56.8086 4.52 57.3186 5.072 57.6666 5.792C58.0266 6.5 58.2066 7.358 58.2066 8.366V14H55.8666V8.744C55.8666 7.676 55.6146 6.872 55.1106 6.332C54.6186 5.78 53.8926 5.504 52.9326 5.504C52.2726 5.504 51.6906 5.654 51.1866 5.954C50.6946 6.242 50.3106 6.65 50.0346 7.178C49.7706 7.706 49.6386 8.324 49.6386 9.032L48.8106 8.582C48.9186 7.526 49.1946 6.626 49.6386 5.882C50.0826 5.138 50.6526 4.568 51.3486 4.172C52.0446 3.764 52.8246 3.56 53.6886 3.56ZM71.7665 4.136H69.4265C69.3425 3.5 69.0605 2.984 68.5805 2.588C68.1125 2.192 67.4525 1.994 66.6005 1.994C66.1085 1.994 65.6765 2.06 65.3045 2.192C64.9325 2.324 64.6385 2.522 64.4225 2.786C64.2185 3.038 64.1165 3.35 64.1165 3.722C64.1165 3.986 64.2005 4.274 64.3685 4.586C64.5485 4.898 64.8545 5.234 65.2865 5.594L75.2225 14H72.1805L63.4685 6.656C62.8565 6.128 62.3945 5.618 62.0825 5.126C61.7825 4.634 61.6325 4.124 61.6325 3.596C61.6325 2.924 61.8305 2.342 62.2265 1.85C62.6225 1.346 63.1865 0.956 63.9185 0.68C64.6625 0.391999 65.5385 0.247999 66.5465 0.247999C67.6145 0.247999 68.5265 0.415999 69.2825 0.751999C70.0505 1.088 70.6445 1.55 71.0645 2.138C71.4845 2.714 71.7185 3.38 71.7665 4.136ZM71.8925 6.854H74.3945L70.8125 11.282C70.2845 11.942 69.7325 12.494 69.1565 12.938C68.5925 13.37 67.9745 13.7 67.3025 13.928C66.6305 14.144 65.8685 14.252 65.0165 14.252C63.9605 14.252 63.0545 14.078 62.2985 13.73C61.5545 13.37 60.9785 12.896 60.5705 12.308C60.1745 11.72 59.9765 11.066 59.9765 10.346C59.9765 9.662 60.1505 9.05 60.4985 8.51C60.8465 7.958 61.3745 7.49 62.0825 7.106C62.8025 6.722 63.7085 6.452 64.8005 6.296L65.3945 7.25C64.4105 7.478 63.6545 7.838 63.1265 8.33C62.5985 8.822 62.3345 9.398 62.3345 10.058C62.3345 10.478 62.4485 10.868 62.6765 11.228C62.9165 11.588 63.2525 11.876 63.6845 12.092C64.1285 12.308 64.6565 12.416 65.2685 12.416C66.2165 12.416 67.0145 12.224 67.6625 11.84C68.3105 11.456 68.8805 10.934 69.3725 10.274L71.8925 6.854ZM76.3553 3.812H78.6953V7.358L78.5873 7.718V9.77L78.6953 10.4V16.97H76.3553V3.812ZM77.7953 8.906C78.0233 7.826 78.4013 6.89 78.9293 6.098C79.4573 5.294 80.1053 4.67 80.8733 4.226C81.6533 3.782 82.5173 3.56 83.4653 3.56C84.4613 3.56 85.3433 3.788 86.1113 4.244C86.8793 4.688 87.4793 5.312 87.9113 6.116C88.3433 6.908 88.5593 7.838 88.5593 8.906C88.5593 9.962 88.3433 10.892 87.9113 11.696C87.4793 12.5 86.8793 13.13 86.1113 13.586C85.3433 14.03 84.4613 14.252 83.4653 14.252C82.5173 14.252 81.6593 14.03 80.8913 13.586C80.1233 13.142 79.4693 12.518 78.9293 11.714C78.4013 10.91 78.0233 9.974 77.7953 8.906ZM86.1833 8.906C86.1833 8.222 86.0393 7.622 85.7513 7.106C85.4753 6.578 85.0913 6.17 84.5993 5.882C84.1073 5.582 83.5433 5.432 82.9073 5.432C82.2713 5.432 81.6713 5.582 81.1073 5.882C80.5553 6.17 80.0693 6.578 79.6493 7.106C79.2293 7.622 78.8873 8.222 78.6233 8.906C78.8873 9.59 79.2293 10.196 79.6493 10.724C80.0693 11.24 80.5553 11.648 81.1073 11.948C81.6713 12.236 82.2713 12.38 82.9073 12.38C83.5433 12.38 84.1073 12.236 84.5993 11.948C85.0913 11.648 85.4753 11.24 85.7513 10.724C86.0393 10.196 86.1833 9.59 86.1833 8.906ZM90.0197 3.812H92.3597L92.9717 7.52V14H90.6317V7.07L90.0197 3.812ZM98.1377 3.74V5.792C97.8737 5.72 97.5857 5.666 97.2737 5.63C96.9617 5.594 96.6677 5.576 96.3917 5.576C95.7317 5.576 95.1437 5.72 94.6277 6.008C94.1117 6.296 93.7037 6.728 93.4037 7.304C93.1157 7.868 92.9717 8.564 92.9717 9.392L92.4317 8.726C92.4797 8.006 92.5997 7.334 92.7917 6.71C92.9957 6.074 93.2717 5.522 93.6197 5.054C93.9797 4.586 94.4177 4.22 94.9337 3.956C95.4497 3.692 96.0497 3.56 96.7337 3.56C96.9737 3.56 97.2197 3.578 97.4717 3.614C97.7237 3.638 97.9457 3.68 98.1377 3.74ZM104.769 14.252C103.581 14.252 102.525 14.03 101.601 13.586C100.677 13.13 99.9508 12.5 99.4228 11.696C98.8948 10.892 98.6308 9.956 98.6308 8.888C98.6308 7.832 98.8768 6.908 99.3688 6.116C99.8728 5.312 100.563 4.688 101.439 4.244C102.327 3.788 103.341 3.56 104.481 3.56C105.621 3.56 106.605 3.818 107.433 4.334C108.273 4.838 108.921 5.552 109.377 6.476C109.833 7.4 110.061 8.486 110.061 9.734H100.467V7.952H108.891L107.721 8.618C107.685 7.946 107.523 7.37 107.235 6.89C106.959 6.41 106.581 6.044 106.101 5.792C105.633 5.528 105.075 5.396 104.427 5.396C103.743 5.396 103.143 5.534 102.627 5.81C102.123 6.086 101.727 6.476 101.439 6.98C101.151 7.472 101.007 8.06 101.007 8.744C101.007 9.5 101.175 10.154 101.511 10.706C101.859 11.258 102.345 11.684 102.969 11.984C103.605 12.272 104.355 12.416 105.219 12.416C105.999 12.416 106.797 12.296 107.613 12.056C108.429 11.804 109.149 11.456 109.773 11.012V12.704C109.149 13.184 108.387 13.562 107.487 13.838C106.599 14.114 105.693 14.252 104.769 14.252ZM122.534 10.904C122.534 11.588 122.342 12.182 121.958 12.686C121.574 13.19 120.992 13.58 120.212 13.856C119.432 14.12 118.454 14.252 117.278 14.252C116.066 14.252 115.016 14.102 114.128 13.802C113.24 13.49 112.55 13.058 112.058 12.506C111.578 11.942 111.32 11.294 111.284 10.562H113.66C113.732 10.946 113.924 11.288 114.236 11.588C114.56 11.876 114.98 12.098 115.496 12.254C116.024 12.41 116.624 12.488 117.296 12.488C118.268 12.488 119 12.374 119.492 12.146C119.984 11.906 120.23 11.546 120.23 11.066C120.23 10.742 120.062 10.496 119.726 10.328C119.402 10.16 118.784 10.034 117.872 9.95L115.874 9.77C114.794 9.674 113.942 9.482 113.318 9.194C112.694 8.894 112.25 8.534 111.986 8.114C111.722 7.682 111.59 7.226 111.59 6.746C111.59 6.05 111.806 5.468 112.238 5C112.67 4.532 113.27 4.178 114.038 3.938C114.806 3.686 115.7 3.56 116.72 3.56C117.776 3.56 118.718 3.71 119.546 4.01C120.374 4.298 121.034 4.706 121.526 5.234C122.018 5.75 122.294 6.35 122.354 7.034H119.978C119.93 6.758 119.786 6.494 119.546 6.242C119.318 5.978 118.964 5.762 118.484 5.594C118.016 5.414 117.386 5.324 116.594 5.324C115.754 5.324 115.094 5.432 114.614 5.648C114.146 5.864 113.912 6.182 113.912 6.602C113.912 6.866 114.056 7.094 114.344 7.286C114.632 7.466 115.166 7.592 115.946 7.664L118.52 7.898C119.552 7.994 120.356 8.18 120.932 8.456C121.52 8.72 121.934 9.062 122.174 9.482C122.414 9.902 122.534 10.376 122.534 10.904ZM134.979 10.904C134.979 11.588 134.787 12.182 134.403 12.686C134.019 13.19 133.437 13.58 132.657 13.856C131.877 14.12 130.899 14.252 129.723 14.252C128.511 14.252 127.461 14.102 126.573 13.802C125.685 13.49 124.995 13.058 124.503 12.506C124.023 11.942 123.765 11.294 123.729 10.562H126.105C126.177 10.946 126.369 11.288 126.681 11.588C127.005 11.876 127.425 12.098 127.941 12.254C128.469 12.41 129.069 12.488 129.741 12.488C130.713 12.488 131.445 12.374 131.937 12.146C132.429 11.906 132.675 11.546 132.675 11.066C132.675 10.742 132.507 10.496 132.171 10.328C131.847 10.16 131.229 10.034 130.317 9.95L128.319 9.77C127.239 9.674 126.387 9.482 125.763 9.194C125.139 8.894 124.695 8.534 124.431 8.114C124.167 7.682 124.035 7.226 124.035 6.746C124.035 6.05 124.251 5.468 124.683 5C125.115 4.532 125.715 4.178 126.483 3.938C127.251 3.686 128.145 3.56 129.165 3.56C130.221 3.56 131.163 3.71 131.991 4.01C132.819 4.298 133.479 4.706 133.971 5.234C134.463 5.75 134.739 6.35 134.799 7.034H132.423C132.375 6.758 132.231 6.494 131.991 6.242C131.763 5.978 131.409 5.762 130.929 5.594C130.461 5.414 129.831 5.324 129.039 5.324C128.199 5.324 127.539 5.432 127.059 5.648C126.591 5.864 126.357 6.182 126.357 6.602C126.357 6.866 126.501 7.094 126.789 7.286C127.077 7.466 127.611 7.592 128.391 7.664L130.965 7.898C131.997 7.994 132.801 8.18 133.377 8.456C133.965 8.72 134.379 9.062 134.619 9.482C134.859 9.902 134.979 10.376 134.979 10.904Z" fill="#FF95C8"/>
</svg>
