<svg width="28" height="28" viewBox="0 0 28 28" fill="none" xmlns="http://www.w3.org/2000/svg">
<path d="M1.11238 12.2353L12.4458 14.274L2.49317 20.0661L2.49018 20.0679L2.99017 20.9339L2.99316 20.9321L12.9856 15.209L9.08448 26.0434L9.0833 26.0466L10.023 26.3886L10.0242 26.3854L14 15.5782L17.9758 26.3854L17.977 26.3886L18.9167 26.0466L18.9155 26.0434L15.0144 15.209L25.0068 20.9321L25.0098 20.9339L25.5098 20.0679L25.5068 20.0661L15.5542 14.274L26.8876 12.2353L26.891 12.2347L26.7174 11.2499L26.714 11.2505L15.3667 13.2109L22.7381 4.36414L22.7404 4.36149L21.9743 3.71871L21.9721 3.72135L14.5398 12.517L14.5 1.00173V0.998274H13.5V1.00173L13.4602 12.517L6.02789 3.72135L6.02567 3.71871L5.25963 4.36149L5.26185 4.36414L12.6333 13.2109L1.28602 11.2505L1.28262 11.2499L1.10898 12.2347L1.11238 12.2353Z" fill="#FF95C8" stroke="#FF95C8"/>
</svg>
